<svg viewBox="0 0 680 650" width="100%" xmlns="http://www.w3.org/2000/svg" role="img"><title>lingnao math kernel proof-dependency graph</title><desc>axioms(blue) to depth-2 theorems(green) to depth-3 theorems(orange) directed acyclic graph</desc><defs><marker id="ar" viewBox="0 0 10 10" refX="8" refY="5" markerWidth="6" markerHeight="6" orient="auto-start-reverse"><path d="M2 1L8 5L2 9" fill="none" stroke="#888780" stroke-width="1.2" stroke-linecap="round"/></marker></defs><line x1="95" y1="265" x2="615" y2="545" stroke="#888780" stroke-width="0.6" opacity="0.35" marker-end="url(#ar)"/><line x1="225" y1="135" x2="615" y2="545" stroke="#888780" stroke-width="0.6" opacity="0.35" marker-end="url(#ar)"/><line x1="225" y1="135" x2="95" y2="235" stroke="#888780" stroke-width="0.6" opacity="0.35" marker-end="url(#ar)"/><line x1="225" y1="265" x2="615" y2="545" stroke="#888780" stroke-width="0.6" opacity="0.35" marker-end="url(#ar)"/><line x1="225" y1="265" x2="485" y2="595" stroke="#888780" stroke-width="0.6" opacity="0.35" marker-end="url(#ar)"/><line x1="355" y1="265" x2="615" y2="595" stroke="#888780" stroke-width="0.6" opacity="0.35" marker-end="url(#ar)"/><line x1="485" y1="265" x2="225" y2="545" stroke="#888780" stroke-width="0.6" opacity="0.35" marker-end="url(#ar)"/><line x1="615" y1="265" x2="485" y2="545" stroke="#888780" stroke-width="0.6" opacity="0.35" marker-end="url(#ar)"/><line x1="95" y1="345" x2="95" y2="595" stroke="#888780" stroke-width="0.6" opacity="0.35" marker-end="url(#ar)"/><line x1="95" y1="345" x2="485" y2="545" stroke="#888780" stroke-width="0.6" opacity="0.35" marker-end="url(#ar)"/><line x1="225" y1="345" x2="485" y2="545" stroke="#888780" stroke-width="0.6" opacity="0.35" marker-end="url(#ar)"/><line x1="225" y1="345" x2="615" y2="595" stroke="#888780" stroke-width="0.6" opacity="0.35" marker-end="url(#ar)"/><line x1="355" y1="345" x2="355" y2="595" stroke="#888780" stroke-width="0.6" opacity="0.35" marker-end="url(#ar)"/><line x1="355" y1="345" x2="485" y2="545" stroke="#888780" stroke-width="0.6" opacity="0.35" marker-end="url(#ar)"/><line x1="355" y1="345" x2="225" y2="595" stroke="#888780" stroke-width="0.6" opacity="0.35" marker-end="url(#ar)"/><line x1="485" y1="345" x2="485" y2="545" stroke="#888780" stroke-width="0.6" opacity="0.35" marker-end="url(#ar)"/><line x1="615" y1="345" x2="225" y2="595" stroke="#888780" stroke-width="0.6" opacity="0.35" marker-end="url(#ar)"/><line x1="615" y1="345" x2="485" y2="595" stroke="#888780" stroke-width="0.6" opacity="0.35" marker-end="url(#ar)"/><line x1="615" y1="345" x2="615" y2="595" stroke="#888780" stroke-width="0.6" opacity="0.35" marker-end="url(#ar)"/><line x1="485" y1="135" x2="355" y2="315" stroke="#888780" stroke-width="0.6" opacity="0.35" marker-end="url(#ar)"/><line x1="485" y1="135" x2="615" y2="315" stroke="#888780" stroke-width="0.6" opacity="0.35" marker-end="url(#ar)"/><line x1="485" y1="135" x2="355" y2="595" stroke="#888780" stroke-width="0.6" opacity="0.35" marker-end="url(#ar)"/><line x1="95" y1="425" x2="355" y2="545" stroke="#888780" stroke-width="0.6" opacity="0.35" marker-end="url(#ar)"/><line x1="95" y1="425" x2="615" y2="595" stroke="#888780" stroke-width="0.6" opacity="0.35" marker-end="url(#ar)"/><line x1="225" y1="425" x2="225" y2="595" stroke="#888780" stroke-width="0.6" opacity="0.35" marker-end="url(#ar)"/><line x1="225" y1="425" x2="225" y2="545" stroke="#888780" stroke-width="0.6" opacity="0.35" marker-end="url(#ar)"/><line x1="355" y1="425" x2="485" y2="545" stroke="#888780" stroke-width="0.6" opacity="0.35" marker-end="url(#ar)"/><line x1="485" y1="425" x2="355" y2="545" stroke="#888780" stroke-width="0.6" opacity="0.35" marker-end="url(#ar)"/><g><rect x="43" y="545" width="104" height="30" rx="6" fill="#85B7EB" stroke="#185FA5" stroke-width="0.8"/><text x="95" y="560" text-anchor="middle" dominant-baseline="central" font-size="11" font-family="monospace" fill="#042C53" font-weight="500">AX LOGIC</text></g><g><rect x="173" y="545" width="104" height="30" rx="6" fill="#85B7EB" stroke="#185FA5" stroke-width="0.8"/><text x="225" y="560" text-anchor="middle" dominant-baseline="central" font-size="11" font-family="monospace" fill="#042C53" font-weight="500">AX SET</text></g><g><rect x="303" y="545" width="104" height="30" rx="6" fill="#85B7EB" stroke="#185FA5" stroke-width="0.8"/><text x="355" y="560" text-anchor="middle" dominant-baseline="central" font-size="11" font-family="monospace" fill="#042C53" font-weight="500">AX REAL</text></g><g><rect x="433" y="545" width="104" height="30" rx="6" fill="#85B7EB" stroke="#185FA5" stroke-width="0.8"/><text x="485" y="560" text-anchor="middle" dominant-baseline="central" font-size="11" font-family="monospace" fill="#042C53" font-weight="500">AX PROB</text></g><g><rect x="563" y="545" width="104" height="30" rx="6" fill="#85B7EB" stroke="#185FA5" stroke-width="0.8"/><text x="615" y="560" text-anchor="middle" dominant-baseline="central" font-size="11" font-family="monospace" fill="#042C53" font-weight="500">AX ORDER</text></g><g><rect x="43" y="595" width="104" height="30" rx="6" fill="#85B7EB" stroke="#185FA5" stroke-width="0.8"/><text x="95" y="610" text-anchor="middle" dominant-baseline="central" font-size="11" font-family="monospace" fill="#042C53" font-weight="500">AX EXCH</text></g><g><rect x="173" y="595" width="104" height="30" rx="6" fill="#85B7EB" stroke="#185FA5" stroke-width="0.8"/><text x="225" y="610" text-anchor="middle" dominant-baseline="central" font-size="11" font-family="monospace" fill="#042C53" font-weight="500">AX LINEAR</text></g><g><rect x="303" y="595" width="104" height="30" rx="6" fill="#85B7EB" stroke="#185FA5" stroke-width="0.8"/><text x="355" y="610" text-anchor="middle" dominant-baseline="central" font-size="11" font-family="monospace" fill="#042C53" font-weight="500">AX GAUSS</text></g><g><rect x="433" y="595" width="104" height="30" rx="6" fill="#85B7EB" stroke="#185FA5" stroke-width="0.8"/><text x="485" y="610" text-anchor="middle" dominant-baseline="central" font-size="11" font-family="monospace" fill="#042C53" font-weight="500">AX MEASURE OPT</text></g><g><rect x="563" y="595" width="104" height="30" rx="6" fill="#85B7EB" stroke="#185FA5" stroke-width="0.8"/><text x="615" y="610" text-anchor="middle" dominant-baseline="central" font-size="11" font-family="monospace" fill="#042C53" font-weight="500">AX CONVEX</text></g><g><rect x="43" y="235" width="104" height="30" rx="6" fill="#97C459" stroke="#3B6D11" stroke-width="0.8"/><text x="95" y="250" text-anchor="middle" dominant-baseline="central" font-size="11" font-family="monospace" fill="#042C53" font-weight="500">KLEENE</text></g><g><rect x="173" y="235" width="104" height="30" rx="6" fill="#97C459" stroke="#3B6D11" stroke-width="0.8"/><text x="225" y="250" text-anchor="middle" dominant-baseline="central" font-size="11" font-family="monospace" fill="#042C53" font-weight="500">ASTAR OPTIMAL</text></g><g><rect x="303" y="235" width="104" height="30" rx="6" fill="#97C459" stroke="#3B6D11" stroke-width="0.8"/><text x="355" y="250" text-anchor="middle" dominant-baseline="central" font-size="11" font-family="monospace" fill="#042C53" font-weight="500">HUNGARIAN OPTIMAL</text></g><g><rect x="433" y="235" width="104" height="30" rx="6" fill="#97C459" stroke="#3B6D11" stroke-width="0.8"/><text x="485" y="250" text-anchor="middle" dominant-baseline="central" font-size="11" font-family="monospace" fill="#042C53" font-weight="500">SHAPLEY UNIQUE</text></g><g><rect x="563" y="235" width="104" height="30" rx="6" fill="#97C459" stroke="#3B6D11" stroke-width="0.8"/><text x="615" y="250" text-anchor="middle" dominant-baseline="central" font-size="11" font-family="monospace" fill="#042C53" font-weight="500">BAYES CONJUGACY</text></g><g><rect x="43" y="315" width="104" height="30" rx="6" fill="#97C459" stroke="#3B6D11" stroke-width="0.8"/><text x="95" y="330" text-anchor="middle" dominant-baseline="central" font-size="11" font-family="monospace" fill="#042C53" font-weight="500">CONFORMAL COVERAGE</text></g><g><rect x="173" y="315" width="104" height="30" rx="6" fill="#97C459" stroke="#3B6D11" stroke-width="0.8"/><text x="225" y="330" text-anchor="middle" dominant-baseline="central" font-size="11" font-family="monospace" fill="#042C53" font-weight="500">CVAR COHERENT</text></g><g><rect x="303" y="315" width="104" height="30" rx="6" fill="#97C459" stroke="#3B6D11" stroke-width="0.8"/><text x="355" y="330" text-anchor="middle" dominant-baseline="central" font-size="11" font-family="monospace" fill="#042C53" font-weight="500">KALMAN MINVAR</text></g><g><rect x="433" y="315" width="104" height="30" rx="6" fill="#97C459" stroke="#3B6D11" stroke-width="0.8"/><text x="485" y="330" text-anchor="middle" dominant-baseline="central" font-size="11" font-family="monospace" fill="#042C53" font-weight="500">PARTICLE CONSISTENT</text></g><g><rect x="563" y="315" width="104" height="30" rx="6" fill="#97C459" stroke="#3B6D11" stroke-width="0.8"/><text x="615" y="330" text-anchor="middle" dominant-baseline="central" font-size="11" font-family="monospace" fill="#042C53" font-weight="500">LQR OPTIMAL</text></g><g><rect x="43" y="395" width="104" height="30" rx="6" fill="#97C459" stroke="#3B6D11" stroke-width="0.8"/><text x="95" y="410" text-anchor="middle" dominant-baseline="central" font-size="11" font-family="monospace" fill="#042C53" font-weight="500">CBF INVARIANCE</text></g><g><rect x="173" y="395" width="104" height="30" rx="6" fill="#97C459" stroke="#3B6D11" stroke-width="0.8"/><text x="225" y="410" text-anchor="middle" dominant-baseline="central" font-size="11" font-family="monospace" fill="#042C53" font-weight="500">ZONOTOPE SOUND</text></g><g><rect x="303" y="395" width="104" height="30" rx="6" fill="#97C459" stroke="#3B6D11" stroke-width="0.8"/><text x="355" y="410" text-anchor="middle" dominant-baseline="central" font-size="11" font-family="monospace" fill="#042C53" font-weight="500">DO CALCULUS</text></g><g><rect x="433" y="395" width="104" height="30" rx="6" fill="#97C459" stroke="#3B6D11" stroke-width="0.8"/><text x="485" y="410" text-anchor="middle" dominant-baseline="central" font-size="11" font-family="monospace" fill="#042C53" font-weight="500">BUCKINGHAM PI</text></g><g><rect x="173" y="105" width="104" height="30" rx="6" fill="#EF9F27" stroke="#854F0B" stroke-width="0.8"/><text x="225" y="120" text-anchor="middle" dominant-baseline="central" font-size="11" font-family="monospace" fill="#042C53" font-weight="500">ABSINT SOUND</text></g><g><rect x="433" y="105" width="104" height="30" rx="6" fill="#EF9F27" stroke="#854F0B" stroke-width="0.8"/><text x="485" y="120" text-anchor="middle" dominant-baseline="central" font-size="11" font-family="monospace" fill="#042C53" font-weight="500">LQG SEPARATION</text></g><g font-family="sans-serif" font-size="11" fill="#5F5E5A"><rect x="40" y="18" width="12" height="12" rx="3" fill="#85B7EB" stroke="#185FA5"/><text x="58" y="29">axiom (10)</text><rect x="150" y="18" width="12" height="12" rx="3" fill="#97C459" stroke="#3B6D11"/><text x="168" y="29">depth-2 theorem (14)</text><rect x="320" y="18" width="12" height="12" rx="3" fill="#EF9F27" stroke="#854F0B"/><text x="338" y="29">depth-3 theorem (2)</text></g></svg>